<svg width="703" height="702" viewBox="0 0 703 702" fill="none" xmlns="http://www.w3.org/2000/svg">
<path d="M161.64 231.02C192.914 199.631 225.134 239.55 220.696 274.858C220.248 303.93 191.801 339.29 163.52 317.621C139.524 297.117 140.983 253.33 161.64 231.02Z" fill="#3474FF"/>
<path d="M488.098 257.364C493.65 233.671 516.392 214.794 539.288 231.02C570.267 252.6 569.474 322.935 527.111 329.391C493.24 329.365 480.462 285.206 488.098 257.364Z" fill="#3474FF"/>
<path fill-rule="evenodd" clip-rule="evenodd" d="M254.49 11.1766C517.638 -44.2517 684.318 113.197 688.872 335.013C693.579 384.038 701.956 537.809 701.598 548.542C725.556 738.942 6.57535 766.388 0.204603 549.938C-0.255873 541.242 6.94586 407.512 11.6401 348.075C18.0484 291.916 19.7117 64.94 254.49 11.1766ZM360.706 356.105C356.216 350.496 347.544 349.92 342.504 355.081C340.738 356.901 315.477 388.571 306.881 399.149C298.631 408.229 294.679 415.952 301.19 426.146C361.729 506.778 340.868 507.457 401.203 425.941C405.526 419.832 405.219 411.264 400.46 405.475C391.021 393.731 362.138 357.898 360.706 356.105ZM267.255 326.854C281.965 215.434 170.696 134.52 107.036 249.987C74.2908 311.934 83.1035 421.69 161.64 441.349C223.254 449.801 261.973 383.858 267.255 326.854ZM565.323 212.04C536.415 187.541 496.149 187.144 468.674 214.653C403.057 277.279 432.515 443.615 535.559 442.027C627.219 429.668 637.911 270.811 565.323 212.04Z" fill="#3474FF"/>
</svg>
